<mxfile host="app.diagrams.net" agent="Mozilla/5.0 (Macintosh; Intel Mac OS X 10_15_7) AppleWebKit/537.36 (KHTML, like Gecko) Chrome/132.0.0.0 Safari/537.36" version="26.0.11">
  <diagram name="Page-1" id="IK1KkRtoNeqFR3WlSVLb">
    <mxGraphModel dx="1340" dy="2287" grid="1" gridSize="10" guides="1" tooltips="1" connect="1" arrows="1" fold="1" page="1" pageScale="1" pageWidth="827" pageHeight="1169" math="0" shadow="0">
      <root>
        <mxCell id="0" />
        <mxCell id="1" parent="0" />
        <mxCell id="RSMacvFGFgpkKbJDah5S-69" style="edgeStyle=orthogonalEdgeStyle;rounded=0;orthogonalLoop=1;jettySize=auto;html=1;exitX=1;exitY=0;exitDx=0;exitDy=0;entryX=1;entryY=1;entryDx=0;entryDy=0;curved=1;" parent="1" source="RSMacvFGFgpkKbJDah5S-3" target="RSMacvFGFgpkKbJDah5S-14" edge="1">
          <mxGeometry relative="1" as="geometry">
            <Array as="points">
              <mxPoint x="550" y="233" />
              <mxPoint x="550" y="87" />
            </Array>
          </mxGeometry>
        </mxCell>
        <mxCell id="RSMacvFGFgpkKbJDah5S-3" value="MEASURE-MENT&lt;div&gt;PENDING&lt;/div&gt;" style="ellipse;whiteSpace=wrap;html=1;aspect=fixed;" parent="1" vertex="1">
          <mxGeometry x="420" y="220" width="90" height="90" as="geometry" />
        </mxCell>
        <mxCell id="RSMacvFGFgpkKbJDah5S-16" style="edgeStyle=orthogonalEdgeStyle;rounded=0;orthogonalLoop=1;jettySize=auto;html=1;exitX=0.5;exitY=1;exitDx=0;exitDy=0;entryX=0.5;entryY=0;entryDx=0;entryDy=0;" parent="1" source="RSMacvFGFgpkKbJDah5S-14" target="RSMacvFGFgpkKbJDah5S-3" edge="1">
          <mxGeometry relative="1" as="geometry" />
        </mxCell>
        <mxCell id="RSMacvFGFgpkKbJDah5S-14" value="IDLE&lt;div&gt;(FREE RUNNING)&lt;/div&gt;" style="ellipse;whiteSpace=wrap;html=1;aspect=fixed;" parent="1" vertex="1">
          <mxGeometry x="420" y="10" width="90" height="90" as="geometry" />
        </mxCell>
        <mxCell id="RSMacvFGFgpkKbJDah5S-19" value="CLK IN interrupt/&lt;div&gt;MIDI CLK interrupt/&lt;/div&gt;&lt;div&gt;TAP TEMPO DEPRESSED&lt;br&gt;&lt;div&gt;(first IP CAP)&lt;/div&gt;&lt;/div&gt;" style="text;html=1;align=center;verticalAlign=middle;resizable=0;points=[];autosize=1;strokeColor=none;fillColor=none;fontSize=8;rotation=-90;" parent="1" vertex="1">
          <mxGeometry x="380" y="130" width="120" height="50" as="geometry" />
        </mxCell>
        <mxCell id="RSMacvFGFgpkKbJDah5S-24" value="&lt;font style=&quot;font-size: 8px;&quot;&gt;IP CAP timeout&lt;/font&gt;" style="text;html=1;align=center;verticalAlign=middle;resizable=0;points=[];autosize=1;strokeColor=none;fillColor=none;" parent="1" vertex="1">
          <mxGeometry x="550" y="140" width="80" height="30" as="geometry" />
        </mxCell>
        <mxCell id="RSMacvFGFgpkKbJDah5S-33" value="&lt;span style=&quot;caret-color: rgb(0, 0, 0); color: rgb(0, 0, 0); font-family: Helvetica; font-style: normal; font-variant-caps: normal; letter-spacing: normal; text-align: center; text-indent: 0px; text-transform: none; white-space: normal; word-spacing: 0px; -webkit-text-stroke-width: 0px; background-color: rgb(251, 251, 251); text-decoration: none; float: none; display: inline !important;&quot;&gt;&lt;b&gt;MIDI CLK MODE PENDING + RESYNC FLOW DIAGRAM&lt;/b&gt;&lt;/span&gt;" style="text;whiteSpace=wrap;html=1;fontSize=15;" parent="1" vertex="1">
          <mxGeometry x="729.5" y="-640" width="180" height="40" as="geometry" />
        </mxCell>
        <mxCell id="RSMacvFGFgpkKbJDah5S-118" style="edgeStyle=orthogonalEdgeStyle;rounded=0;orthogonalLoop=1;jettySize=auto;html=1;exitX=1;exitY=0.5;exitDx=0;exitDy=0;entryX=0;entryY=0.5;entryDx=0;entryDy=0;" parent="1" source="RSMacvFGFgpkKbJDah5S-36" target="RSMacvFGFgpkKbJDah5S-117" edge="1">
          <mxGeometry relative="1" as="geometry" />
        </mxCell>
        <mxCell id="RSMacvFGFgpkKbJDah5S-134" style="edgeStyle=orthogonalEdgeStyle;rounded=0;orthogonalLoop=1;jettySize=auto;html=1;exitX=0.5;exitY=1;exitDx=0;exitDy=0;entryX=0.5;entryY=0;entryDx=0;entryDy=0;" parent="1" source="RSMacvFGFgpkKbJDah5S-36" target="Shjspx8WNnUXgj1P62MN-24" edge="1">
          <mxGeometry relative="1" as="geometry">
            <mxPoint x="895" y="550" as="targetPoint" />
          </mxGeometry>
        </mxCell>
        <mxCell id="RSMacvFGFgpkKbJDah5S-36" value="12 MIDI&amp;nbsp;&lt;div&gt;CLK interrupts received?&lt;/div&gt;" style="rhombus;whiteSpace=wrap;html=1;" parent="1" vertex="1">
          <mxGeometry x="830" y="440" width="130" height="80" as="geometry" />
        </mxCell>
        <mxCell id="RSMacvFGFgpkKbJDah5S-102" style="edgeStyle=orthogonalEdgeStyle;rounded=0;orthogonalLoop=1;jettySize=auto;html=1;exitX=0.5;exitY=1;exitDx=0;exitDy=0;entryX=0.5;entryY=0;entryDx=0;entryDy=0;" parent="1" source="RSMacvFGFgpkKbJDah5S-37" target="RSMacvFGFgpkKbJDah5S-101" edge="1">
          <mxGeometry relative="1" as="geometry" />
        </mxCell>
        <mxCell id="RSMacvFGFgpkKbJDah5S-37" value="MIDI CLK interrupt received" style="rounded=0;whiteSpace=wrap;html=1;" parent="1" vertex="1">
          <mxGeometry x="835" y="260" width="120" height="60" as="geometry" />
        </mxCell>
        <mxCell id="RSMacvFGFgpkKbJDah5S-55" value="&lt;span style=&quot;caret-color: rgb(0, 0, 0); color: rgb(0, 0, 0); font-family: Helvetica; font-size: 12px; font-style: normal; font-variant-caps: normal; letter-spacing: normal; text-align: center; text-indent: 0px; text-transform: none; white-space: normal; word-spacing: 0px; -webkit-text-stroke-width: 0px; background-color: rgb(251, 251, 251); text-decoration: none; float: none; display: inline !important;&quot;&gt;&lt;b&gt;THESE STATES ARE DISCONNECTED FROM THE SPEED POT OR NORMAL POT STATES&lt;/b&gt;&lt;/span&gt;" style="text;whiteSpace=wrap;html=1;" parent="1" vertex="1">
          <mxGeometry x="190" y="-60" width="180" height="40" as="geometry" />
        </mxCell>
        <mxCell id="RSMacvFGFgpkKbJDah5S-79" style="edgeStyle=orthogonalEdgeStyle;rounded=0;orthogonalLoop=1;jettySize=auto;html=1;exitX=1;exitY=0.5;exitDx=0;exitDy=0;entryX=1;entryY=0.5;entryDx=0;entryDy=0;curved=1;" parent="1" source="RSMacvFGFgpkKbJDah5S-66" target="RSMacvFGFgpkKbJDah5S-14" edge="1">
          <mxGeometry relative="1" as="geometry">
            <Array as="points">
              <mxPoint x="690" y="475" />
              <mxPoint x="690" y="55" />
            </Array>
          </mxGeometry>
        </mxCell>
        <mxCell id="RSMacvFGFgpkKbJDah5S-66" value="MEASURE-&lt;div&gt;MENT&lt;/div&gt;&lt;div&gt;REELAPSE&lt;/div&gt;" style="ellipse;whiteSpace=wrap;html=1;aspect=fixed;" parent="1" vertex="1">
          <mxGeometry x="420" y="430" width="90" height="90" as="geometry" />
        </mxCell>
        <mxCell id="RSMacvFGFgpkKbJDah5S-67" style="edgeStyle=orthogonalEdgeStyle;rounded=0;orthogonalLoop=1;jettySize=auto;html=1;exitX=0.5;exitY=1;exitDx=0;exitDy=0;entryX=0.5;entryY=0;entryDx=0;entryDy=0;" parent="1" target="RSMacvFGFgpkKbJDah5S-66" edge="1">
          <mxGeometry relative="1" as="geometry">
            <mxPoint x="465" y="310" as="sourcePoint" />
          </mxGeometry>
        </mxCell>
        <mxCell id="RSMacvFGFgpkKbJDah5S-70" value="CLK IN interrupt/&lt;div&gt;25th MIDI CLK interrupt/&lt;/div&gt;&lt;div&gt;TAP TEMPO Depressed&lt;br&gt;&lt;div&gt;(second IP CAP)&lt;/div&gt;&lt;/div&gt;" style="text;html=1;align=center;verticalAlign=middle;resizable=0;points=[];autosize=1;strokeColor=none;fillColor=none;fontSize=8;rotation=-90;" parent="1" vertex="1">
          <mxGeometry x="385" y="340" width="110" height="50" as="geometry" />
        </mxCell>
        <mxCell id="RSMacvFGFgpkKbJDah5S-71" value="CLK IN interrupt/&lt;div&gt;25th MIDI CLK interrupt/&lt;/div&gt;&lt;div&gt;TAP TEMPO DEPRESSED&lt;br&gt;&lt;div&gt;(first IP CAP)&lt;/div&gt;&lt;/div&gt;" style="text;html=1;align=center;verticalAlign=middle;resizable=0;points=[];autosize=1;strokeColor=none;fillColor=none;fontSize=8;rotation=-90;" parent="1" vertex="1">
          <mxGeometry x="380" y="550" width="120" height="50" as="geometry" />
        </mxCell>
        <mxCell id="RSMacvFGFgpkKbJDah5S-74" value="" style="edgeStyle=orthogonalEdgeStyle;rounded=0;orthogonalLoop=1;jettySize=auto;html=1;exitX=0.5;exitY=1;exitDx=0;exitDy=0;" parent="1" source="RSMacvFGFgpkKbJDah5S-66" target="RSMacvFGFgpkKbJDah5S-73" edge="1">
          <mxGeometry relative="1" as="geometry">
            <mxPoint x="465" y="650" as="targetPoint" />
            <mxPoint x="465" y="520" as="sourcePoint" />
          </mxGeometry>
        </mxCell>
        <mxCell id="RSMacvFGFgpkKbJDah5S-81" style="edgeStyle=orthogonalEdgeStyle;rounded=0;orthogonalLoop=1;jettySize=auto;html=1;exitX=0;exitY=0.5;exitDx=0;exitDy=0;entryX=0;entryY=0.5;entryDx=0;entryDy=0;curved=1;" parent="1" source="RSMacvFGFgpkKbJDah5S-73" target="RSMacvFGFgpkKbJDah5S-66" edge="1">
          <mxGeometry relative="1" as="geometry">
            <Array as="points">
              <mxPoint x="330" y="685" />
              <mxPoint x="330" y="475" />
            </Array>
          </mxGeometry>
        </mxCell>
        <mxCell id="RSMacvFGFgpkKbJDah5S-90" style="edgeStyle=orthogonalEdgeStyle;rounded=0;orthogonalLoop=1;jettySize=auto;html=1;exitX=0;exitY=1;exitDx=0;exitDy=0;entryX=0;entryY=0.5;entryDx=0;entryDy=0;curved=1;" parent="1" source="RSMacvFGFgpkKbJDah5S-73" target="RSMacvFGFgpkKbJDah5S-3" edge="1">
          <mxGeometry relative="1" as="geometry">
            <Array as="points">
              <mxPoint x="270" y="717" />
              <mxPoint x="270" y="265" />
            </Array>
          </mxGeometry>
        </mxCell>
        <mxCell id="RSMacvFGFgpkKbJDah5S-73" value="MEASURE-MENT REELAPSE + NEW&lt;div&gt;&amp;nbsp;MEASURE-&lt;/div&gt;&lt;div&gt;MENT&lt;/div&gt;" style="ellipse;whiteSpace=wrap;html=1;aspect=fixed;" parent="1" vertex="1">
          <mxGeometry x="420" y="640" width="90" height="90" as="geometry" />
        </mxCell>
        <mxCell id="RSMacvFGFgpkKbJDah5S-78" value="CLK IN interrupt/&lt;div&gt;25th MIDI CLK interrupt/&lt;/div&gt;&lt;div&gt;TAP TEMPO Depressed&lt;br&gt;&lt;div&gt;(second IP CAP)&lt;/div&gt;&lt;/div&gt;" style="text;html=1;align=center;verticalAlign=middle;resizable=0;points=[];autosize=1;strokeColor=none;fillColor=none;fontSize=8;rotation=-90;" parent="1" vertex="1">
          <mxGeometry x="304" y="550" width="110" height="50" as="geometry" />
        </mxCell>
        <mxCell id="RSMacvFGFgpkKbJDah5S-80" value="&lt;font style=&quot;font-size: 8px;&quot;&gt;TIM3 overflow&lt;/font&gt;&lt;div&gt;&lt;font style=&quot;font-size: 8px;&quot;&gt;(SYNC COMPLETED)&lt;/font&gt;&lt;/div&gt;" style="text;html=1;align=center;verticalAlign=middle;resizable=0;points=[];autosize=1;strokeColor=none;fillColor=none;" parent="1" vertex="1">
          <mxGeometry x="590" y="245" width="100" height="40" as="geometry" />
        </mxCell>
        <mxCell id="RSMacvFGFgpkKbJDah5S-89" value="&lt;font style=&quot;font-size: 8px;&quot;&gt;TIM3 overflow&lt;/font&gt;&lt;div&gt;&lt;font style=&quot;font-size: 8px;&quot;&gt;(SYNC COMPLETED)&lt;/font&gt;&lt;/div&gt;" style="text;html=1;align=center;verticalAlign=middle;resizable=0;points=[];autosize=1;strokeColor=none;fillColor=none;rotation=-90;" parent="1" vertex="1">
          <mxGeometry x="200" y="455" width="100" height="40" as="geometry" />
        </mxCell>
        <mxCell id="RSMacvFGFgpkKbJDah5S-91" value="yes" style="text;html=1;align=center;verticalAlign=middle;resizable=0;points=[];autosize=1;strokeColor=none;fillColor=none;" parent="1" vertex="1">
          <mxGeometry x="897" y="510" width="40" height="30" as="geometry" />
        </mxCell>
        <mxCell id="RSMacvFGFgpkKbJDah5S-109" style="edgeStyle=orthogonalEdgeStyle;rounded=0;orthogonalLoop=1;jettySize=auto;html=1;exitX=0;exitY=0.5;exitDx=0;exitDy=0;entryX=0;entryY=0.5;entryDx=0;entryDy=0;" parent="1" source="RSMacvFGFgpkKbJDah5S-92" target="Shjspx8WNnUXgj1P62MN-1" edge="1">
          <mxGeometry relative="1" as="geometry">
            <Array as="points">
              <mxPoint x="770" y="1120" />
              <mxPoint x="770" y="-246" />
            </Array>
            <mxPoint x="850" y="115" as="targetPoint" />
          </mxGeometry>
        </mxCell>
        <mxCell id="RSMacvFGFgpkKbJDah5S-92" value="Set SW OUT LOW&lt;div&gt;and &#39;rebadge&#39; 25th interrupt as the first&lt;/div&gt;" style="rounded=0;whiteSpace=wrap;html=1;" parent="1" vertex="1">
          <mxGeometry x="835" y="1090" width="120" height="60" as="geometry" />
        </mxCell>
        <mxCell id="RSMacvFGFgpkKbJDah5S-96" style="edgeStyle=orthogonalEdgeStyle;rounded=0;orthogonalLoop=1;jettySize=auto;html=1;exitX=0.5;exitY=1;exitDx=0;exitDy=0;entryX=0.5;entryY=0;entryDx=0;entryDy=0;" parent="1" source="RSMacvFGFgpkKbJDah5S-93" target="RSMacvFGFgpkKbJDah5S-92" edge="1">
          <mxGeometry relative="1" as="geometry" />
        </mxCell>
        <mxCell id="RSMacvFGFgpkKbJDah5S-125" style="edgeStyle=orthogonalEdgeStyle;rounded=0;orthogonalLoop=1;jettySize=auto;html=1;exitX=1;exitY=0.5;exitDx=0;exitDy=0;entryX=0;entryY=0.5;entryDx=0;entryDy=0;" parent="1" source="RSMacvFGFgpkKbJDah5S-93" target="RSMacvFGFgpkKbJDah5S-124" edge="1">
          <mxGeometry relative="1" as="geometry" />
        </mxCell>
        <mxCell id="RSMacvFGFgpkKbJDah5S-93" value="25 MIDI&amp;nbsp;&lt;div&gt;CLK interrupts received?&lt;/div&gt;" style="rhombus;whiteSpace=wrap;html=1;" parent="1" vertex="1">
          <mxGeometry x="830" y="960" width="130" height="80" as="geometry" />
        </mxCell>
        <mxCell id="RSMacvFGFgpkKbJDah5S-97" value="yes" style="text;html=1;align=center;verticalAlign=middle;resizable=0;points=[];autosize=1;strokeColor=none;fillColor=none;" parent="1" vertex="1">
          <mxGeometry x="900" y="1030" width="40" height="30" as="geometry" />
        </mxCell>
        <mxCell id="RSMacvFGFgpkKbJDah5S-100" value="no" style="text;html=1;align=center;verticalAlign=middle;resizable=0;points=[];autosize=1;strokeColor=none;fillColor=none;" parent="1" vertex="1">
          <mxGeometry x="950" y="970" width="40" height="30" as="geometry" />
        </mxCell>
        <mxCell id="RSMacvFGFgpkKbJDah5S-115" style="edgeStyle=orthogonalEdgeStyle;rounded=0;orthogonalLoop=1;jettySize=auto;html=1;exitX=0.5;exitY=1;exitDx=0;exitDy=0;entryX=0.5;entryY=0;entryDx=0;entryDy=0;" parent="1" source="RSMacvFGFgpkKbJDah5S-101" target="RSMacvFGFgpkKbJDah5S-36" edge="1">
          <mxGeometry relative="1" as="geometry" />
        </mxCell>
        <mxCell id="RSMacvFGFgpkKbJDah5S-101" value="Set SW OUT HIGH" style="rounded=0;whiteSpace=wrap;html=1;" parent="1" vertex="1">
          <mxGeometry x="835" y="350" width="120" height="60" as="geometry" />
        </mxCell>
        <mxCell id="RSMacvFGFgpkKbJDah5S-105" value="no" style="text;html=1;align=center;verticalAlign=middle;resizable=0;points=[];autosize=1;strokeColor=none;fillColor=none;" parent="1" vertex="1">
          <mxGeometry x="950" y="450" width="40" height="30" as="geometry" />
        </mxCell>
        <mxCell id="Shjspx8WNnUXgj1P62MN-33" style="edgeStyle=orthogonalEdgeStyle;rounded=0;orthogonalLoop=1;jettySize=auto;html=1;exitX=0.5;exitY=1;exitDx=0;exitDy=0;entryX=0.5;entryY=0;entryDx=0;entryDy=0;" edge="1" parent="1" source="RSMacvFGFgpkKbJDah5S-106" target="Shjspx8WNnUXgj1P62MN-32">
          <mxGeometry relative="1" as="geometry" />
        </mxCell>
        <mxCell id="RSMacvFGFgpkKbJDah5S-106" value="Set SW OUT HIGH" style="rounded=0;whiteSpace=wrap;html=1;" parent="1" vertex="1">
          <mxGeometry x="835" y="670" width="120" height="60" as="geometry" />
        </mxCell>
        <mxCell id="Shjspx8WNnUXgj1P62MN-22" style="edgeStyle=orthogonalEdgeStyle;rounded=0;orthogonalLoop=1;jettySize=auto;html=1;exitX=0.5;exitY=0;exitDx=0;exitDy=0;entryX=1;entryY=0.5;entryDx=0;entryDy=0;" edge="1" parent="1" source="RSMacvFGFgpkKbJDah5S-110" target="Shjspx8WNnUXgj1P62MN-10">
          <mxGeometry relative="1" as="geometry" />
        </mxCell>
        <mxCell id="RSMacvFGFgpkKbJDah5S-110" value="Set SW OUT HIGH" style="rounded=0;whiteSpace=wrap;html=1;" parent="1" vertex="1">
          <mxGeometry x="1110" y="-30" width="120" height="60" as="geometry" />
        </mxCell>
        <mxCell id="RSMacvFGFgpkKbJDah5S-119" style="edgeStyle=orthogonalEdgeStyle;rounded=0;orthogonalLoop=1;jettySize=auto;html=1;exitX=1;exitY=0.5;exitDx=0;exitDy=0;entryX=0.5;entryY=1;entryDx=0;entryDy=0;" parent="1" source="RSMacvFGFgpkKbJDah5S-117" target="RSMacvFGFgpkKbJDah5S-110" edge="1">
          <mxGeometry relative="1" as="geometry">
            <Array as="points">
              <mxPoint x="1170" y="480" />
            </Array>
            <mxPoint x="1140" y="390" as="targetPoint" />
          </mxGeometry>
        </mxCell>
        <mxCell id="Shjspx8WNnUXgj1P62MN-20" style="edgeStyle=orthogonalEdgeStyle;rounded=0;orthogonalLoop=1;jettySize=auto;html=1;entryX=1;entryY=0.5;entryDx=0;entryDy=0;" edge="1" parent="1" source="RSMacvFGFgpkKbJDah5S-117" target="Shjspx8WNnUXgj1P62MN-23">
          <mxGeometry relative="1" as="geometry">
            <mxPoint x="940" y="115" as="targetPoint" />
            <Array as="points">
              <mxPoint x="1065" y="110" />
            </Array>
          </mxGeometry>
        </mxCell>
        <mxCell id="RSMacvFGFgpkKbJDah5S-117" value="IP CAP timeout?" style="rhombus;whiteSpace=wrap;html=1;" parent="1" vertex="1">
          <mxGeometry x="1000" y="440" width="130" height="80" as="geometry" />
        </mxCell>
        <mxCell id="RSMacvFGFgpkKbJDah5S-120" value="yes" style="text;html=1;align=center;verticalAlign=middle;resizable=0;points=[];autosize=1;strokeColor=none;fillColor=none;" parent="1" vertex="1">
          <mxGeometry x="1120" y="480" width="40" height="30" as="geometry" />
        </mxCell>
        <mxCell id="RSMacvFGFgpkKbJDah5S-122" value="no" style="text;html=1;align=center;verticalAlign=middle;resizable=0;points=[];autosize=1;strokeColor=none;fillColor=none;" parent="1" vertex="1">
          <mxGeometry x="1030" y="410" width="40" height="30" as="geometry" />
        </mxCell>
        <mxCell id="RSMacvFGFgpkKbJDah5S-126" style="edgeStyle=orthogonalEdgeStyle;rounded=0;orthogonalLoop=1;jettySize=auto;html=1;exitX=1;exitY=0.5;exitDx=0;exitDy=0;entryX=0.75;entryY=1;entryDx=0;entryDy=0;" parent="1" source="RSMacvFGFgpkKbJDah5S-124" target="RSMacvFGFgpkKbJDah5S-110" edge="1">
          <mxGeometry relative="1" as="geometry" />
        </mxCell>
        <mxCell id="Shjspx8WNnUXgj1P62MN-25" style="edgeStyle=orthogonalEdgeStyle;rounded=0;orthogonalLoop=1;jettySize=auto;html=1;entryX=1;entryY=0.5;entryDx=0;entryDy=0;" edge="1" parent="1" source="RSMacvFGFgpkKbJDah5S-124" target="Shjspx8WNnUXgj1P62MN-24">
          <mxGeometry relative="1" as="geometry">
            <Array as="points">
              <mxPoint x="1065" y="600" />
            </Array>
          </mxGeometry>
        </mxCell>
        <mxCell id="RSMacvFGFgpkKbJDah5S-124" value="IP CAP timeout?" style="rhombus;whiteSpace=wrap;html=1;" parent="1" vertex="1">
          <mxGeometry x="1000" y="960" width="130" height="80" as="geometry" />
        </mxCell>
        <mxCell id="RSMacvFGFgpkKbJDah5S-127" value="yes" style="text;html=1;align=center;verticalAlign=middle;resizable=0;points=[];autosize=1;strokeColor=none;fillColor=none;" parent="1" vertex="1">
          <mxGeometry x="1120" y="970" width="40" height="30" as="geometry" />
        </mxCell>
        <mxCell id="RSMacvFGFgpkKbJDah5S-129" style="edgeStyle=orthogonalEdgeStyle;rounded=0;orthogonalLoop=1;jettySize=auto;html=1;exitX=0.5;exitY=1;exitDx=0;exitDy=0;entryX=0.5;entryY=0;entryDx=0;entryDy=0;" parent="1" source="RSMacvFGFgpkKbJDah5S-128" target="RSMacvFGFgpkKbJDah5S-93" edge="1">
          <mxGeometry relative="1" as="geometry" />
        </mxCell>
        <mxCell id="RSMacvFGFgpkKbJDah5S-128" value="MIDI CLK interrupt received" style="rounded=0;whiteSpace=wrap;html=1;" parent="1" vertex="1">
          <mxGeometry x="835" y="870" width="120" height="60" as="geometry" />
        </mxCell>
        <mxCell id="RSMacvFGFgpkKbJDah5S-133" style="edgeStyle=orthogonalEdgeStyle;rounded=0;orthogonalLoop=1;jettySize=auto;html=1;exitX=0.5;exitY=1;exitDx=0;exitDy=0;entryX=0.5;entryY=0;entryDx=0;entryDy=0;" parent="1" source="Shjspx8WNnUXgj1P62MN-24" target="RSMacvFGFgpkKbJDah5S-106" edge="1">
          <mxGeometry relative="1" as="geometry">
            <mxPoint x="895" y="630" as="sourcePoint" />
          </mxGeometry>
        </mxCell>
        <mxCell id="RSMacvFGFgpkKbJDah5S-135" value="no" style="text;html=1;align=center;verticalAlign=middle;resizable=0;points=[];autosize=1;strokeColor=none;fillColor=none;" parent="1" vertex="1">
          <mxGeometry x="1020" y="940" width="40" height="30" as="geometry" />
        </mxCell>
        <mxCell id="Shjspx8WNnUXgj1P62MN-2" style="edgeStyle=orthogonalEdgeStyle;rounded=0;orthogonalLoop=1;jettySize=auto;html=1;exitX=0.5;exitY=1;exitDx=0;exitDy=0;entryX=0.5;entryY=0;entryDx=0;entryDy=0;" edge="1" parent="1" source="Shjspx8WNnUXgj1P62MN-1">
          <mxGeometry relative="1" as="geometry">
            <mxPoint x="892.5" y="-156" as="targetPoint" />
          </mxGeometry>
        </mxCell>
        <mxCell id="Shjspx8WNnUXgj1P62MN-1" value="1 MIDI&lt;div&gt;CLK interrupts received?&lt;/div&gt;" style="rhombus;whiteSpace=wrap;html=1;" vertex="1" parent="1">
          <mxGeometry x="827.5" y="-286" width="130" height="80" as="geometry" />
        </mxCell>
        <mxCell id="Shjspx8WNnUXgj1P62MN-3" value="yes" style="text;html=1;align=center;verticalAlign=middle;resizable=0;points=[];autosize=1;strokeColor=none;fillColor=none;" vertex="1" parent="1">
          <mxGeometry x="887.5" y="-216" width="40" height="30" as="geometry" />
        </mxCell>
        <mxCell id="Shjspx8WNnUXgj1P62MN-18" style="edgeStyle=orthogonalEdgeStyle;rounded=0;orthogonalLoop=1;jettySize=auto;html=1;exitX=0.5;exitY=1;exitDx=0;exitDy=0;entryX=0.5;entryY=0;entryDx=0;entryDy=0;" edge="1" parent="1" source="Shjspx8WNnUXgj1P62MN-6" target="Shjspx8WNnUXgj1P62MN-16">
          <mxGeometry relative="1" as="geometry" />
        </mxCell>
        <mxCell id="Shjspx8WNnUXgj1P62MN-6" value="COMPILING" style="ellipse;whiteSpace=wrap;html=1;aspect=fixed;" vertex="1" parent="1">
          <mxGeometry x="850" y="-156" width="90" height="90" as="geometry" />
        </mxCell>
        <mxCell id="Shjspx8WNnUXgj1P62MN-9" style="edgeStyle=orthogonalEdgeStyle;rounded=0;orthogonalLoop=1;jettySize=auto;html=1;exitX=0.5;exitY=1;exitDx=0;exitDy=0;entryX=0.5;entryY=0;entryDx=0;entryDy=0;" edge="1" parent="1" source="Shjspx8WNnUXgj1P62MN-8" target="Shjspx8WNnUXgj1P62MN-1">
          <mxGeometry relative="1" as="geometry" />
        </mxCell>
        <mxCell id="Shjspx8WNnUXgj1P62MN-8" value="MIDI CLK interrupt received" style="rounded=0;whiteSpace=wrap;html=1;" vertex="1" parent="1">
          <mxGeometry x="832.5" y="-386" width="120" height="60" as="geometry" />
        </mxCell>
        <mxCell id="Shjspx8WNnUXgj1P62MN-11" style="edgeStyle=orthogonalEdgeStyle;rounded=0;orthogonalLoop=1;jettySize=auto;html=1;exitX=0.5;exitY=1;exitDx=0;exitDy=0;entryX=0.5;entryY=0;entryDx=0;entryDy=0;" edge="1" parent="1" source="Shjspx8WNnUXgj1P62MN-10" target="Shjspx8WNnUXgj1P62MN-8">
          <mxGeometry relative="1" as="geometry" />
        </mxCell>
        <mxCell id="Shjspx8WNnUXgj1P62MN-10" value="WAIT 1 (NOT COMPILING)" style="ellipse;whiteSpace=wrap;html=1;aspect=fixed;" vertex="1" parent="1">
          <mxGeometry x="847.5" y="-526" width="90" height="90" as="geometry" />
        </mxCell>
        <mxCell id="Shjspx8WNnUXgj1P62MN-21" style="edgeStyle=orthogonalEdgeStyle;rounded=0;orthogonalLoop=1;jettySize=auto;html=1;exitX=0.5;exitY=1;exitDx=0;exitDy=0;entryX=0.5;entryY=0;entryDx=0;entryDy=0;" edge="1" parent="1" source="Shjspx8WNnUXgj1P62MN-16" target="Shjspx8WNnUXgj1P62MN-23">
          <mxGeometry relative="1" as="geometry">
            <mxPoint x="895.0000000000002" y="70" as="targetPoint" />
          </mxGeometry>
        </mxCell>
        <mxCell id="Shjspx8WNnUXgj1P62MN-16" value="Set SW OUT LOW" style="rounded=0;whiteSpace=wrap;html=1;" vertex="1" parent="1">
          <mxGeometry x="835" y="-26" width="120" height="60" as="geometry" />
        </mxCell>
        <mxCell id="Shjspx8WNnUXgj1P62MN-28" style="edgeStyle=orthogonalEdgeStyle;rounded=0;orthogonalLoop=1;jettySize=auto;html=1;exitX=0.5;exitY=1;exitDx=0;exitDy=0;entryX=0.5;entryY=0;entryDx=0;entryDy=0;" edge="1" parent="1" source="Shjspx8WNnUXgj1P62MN-23" target="Shjspx8WNnUXgj1P62MN-26">
          <mxGeometry relative="1" as="geometry" />
        </mxCell>
        <mxCell id="Shjspx8WNnUXgj1P62MN-23" value="WAIT 2" style="rounded=0;whiteSpace=wrap;html=1;" vertex="1" parent="1">
          <mxGeometry x="835" y="80" width="120" height="60" as="geometry" />
        </mxCell>
        <mxCell id="Shjspx8WNnUXgj1P62MN-24" value="WAIT 3" style="rounded=0;whiteSpace=wrap;html=1;" vertex="1" parent="1">
          <mxGeometry x="835" y="570" width="120" height="60" as="geometry" />
        </mxCell>
        <mxCell id="Shjspx8WNnUXgj1P62MN-29" style="edgeStyle=orthogonalEdgeStyle;rounded=0;orthogonalLoop=1;jettySize=auto;html=1;exitX=0.5;exitY=1;exitDx=0;exitDy=0;entryX=0.5;entryY=0;entryDx=0;entryDy=0;" edge="1" parent="1" source="Shjspx8WNnUXgj1P62MN-26" target="RSMacvFGFgpkKbJDah5S-37">
          <mxGeometry relative="1" as="geometry" />
        </mxCell>
        <mxCell id="Shjspx8WNnUXgj1P62MN-30" style="edgeStyle=orthogonalEdgeStyle;rounded=0;orthogonalLoop=1;jettySize=auto;html=1;exitX=1;exitY=0.5;exitDx=0;exitDy=0;entryX=0.25;entryY=1;entryDx=0;entryDy=0;jumpStyle=arc;" edge="1" parent="1" source="Shjspx8WNnUXgj1P62MN-26" target="RSMacvFGFgpkKbJDah5S-110">
          <mxGeometry relative="1" as="geometry" />
        </mxCell>
        <mxCell id="Shjspx8WNnUXgj1P62MN-26" value="IP CAP timeout?" style="rhombus;whiteSpace=wrap;html=1;" vertex="1" parent="1">
          <mxGeometry x="830" y="160" width="130" height="80" as="geometry" />
        </mxCell>
        <mxCell id="Shjspx8WNnUXgj1P62MN-31" value="yes" style="text;html=1;align=center;verticalAlign=middle;resizable=0;points=[];autosize=1;strokeColor=none;fillColor=none;" vertex="1" parent="1">
          <mxGeometry x="952.5" y="170" width="40" height="30" as="geometry" />
        </mxCell>
        <mxCell id="Shjspx8WNnUXgj1P62MN-34" style="edgeStyle=orthogonalEdgeStyle;rounded=0;orthogonalLoop=1;jettySize=auto;html=1;exitX=0.5;exitY=1;exitDx=0;exitDy=0;entryX=0.5;entryY=0;entryDx=0;entryDy=0;" edge="1" parent="1" source="Shjspx8WNnUXgj1P62MN-32" target="RSMacvFGFgpkKbJDah5S-128">
          <mxGeometry relative="1" as="geometry" />
        </mxCell>
        <mxCell id="Shjspx8WNnUXgj1P62MN-35" style="edgeStyle=orthogonalEdgeStyle;rounded=0;orthogonalLoop=1;jettySize=auto;html=1;exitX=1;exitY=0.5;exitDx=0;exitDy=0;entryX=1;entryY=1;entryDx=0;entryDy=0;jumpStyle=arc;" edge="1" parent="1" source="Shjspx8WNnUXgj1P62MN-32" target="RSMacvFGFgpkKbJDah5S-110">
          <mxGeometry relative="1" as="geometry" />
        </mxCell>
        <mxCell id="Shjspx8WNnUXgj1P62MN-32" value="IP CAP timeout?" style="rhombus;whiteSpace=wrap;html=1;" vertex="1" parent="1">
          <mxGeometry x="830" y="760" width="130" height="80" as="geometry" />
        </mxCell>
        <mxCell id="Shjspx8WNnUXgj1P62MN-36" value="yes" style="text;html=1;align=center;verticalAlign=middle;resizable=0;points=[];autosize=1;strokeColor=none;fillColor=none;" vertex="1" parent="1">
          <mxGeometry x="960" y="770" width="40" height="30" as="geometry" />
        </mxCell>
        <mxCell id="Shjspx8WNnUXgj1P62MN-37" value="no" style="text;html=1;align=center;verticalAlign=middle;resizable=0;points=[];autosize=1;strokeColor=none;fillColor=none;" vertex="1" parent="1">
          <mxGeometry x="887.5" y="830" width="40" height="30" as="geometry" />
        </mxCell>
      </root>
    </mxGraphModel>
  </diagram>
</mxfile>
